<svg width="48" height="48" viewBox="0 0 48 48" fill="none" xmlns="http://www.w3.org/2000/svg">
<path d="M26.7193 6.01259C27.3622 5.36423 28.2342 5 29.1433 5C30.0524 5 30.9244 5.36423 31.5673 6.01259L46.9961 21.5757C47.6389 22.2243 48 23.1038 48 24.0209C48 24.9379 47.6389 25.8175 46.9961 26.466L31.5673 42.0292C30.9207 42.6592 30.0546 43.0077 29.1556 42.9999C28.2567 42.992 27.3967 42.6283 26.761 41.987C26.1253 41.3458 25.7648 40.4784 25.7569 39.5716C25.7491 38.6648 26.0947 37.7912 26.7193 37.1389L36.0005 27.4794H3.42862C2.5193 27.4794 1.64721 27.115 1.00422 26.4664C0.361229 25.8178 0 24.9381 0 24.0209C0 23.1036 0.361229 22.224 1.00422 21.5754C1.64721 20.9268 2.5193 20.5624 3.42862 20.5624H36.0005L26.7193 10.9029C26.0765 10.2543 25.7154 9.3748 25.7154 8.45774C25.7154 7.54067 26.0765 6.66115 26.7193 6.01259Z" fill="currentColor"/>
</svg>
