<svg width="48" height="48" viewBox="0 0 48 48" fill="none" xmlns="http://www.w3.org/2000/svg">
<path d="M48 36.75V11.25C48 8.89833 46.1093 7 43.7672 7H4.2328C1.89065 7 0 8.89833 0 11.25V36.75C0 39.1017 1.89065 41 4.2328 41H43.7672C46.1093 41 48 39.1017 48 36.75ZM44.3034 10.9383C45.2346 11.8733 44.7266 12.8367 44.2187 13.3183L32.7619 23.8583L43.7672 35.3617C44.1058 35.7583 44.3316 36.3817 43.9365 36.8067C43.5697 37.26 42.7231 37.2317 42.3563 36.9483L30.0247 26.38L23.9859 31.905L17.9753 26.38L5.64374 36.9483C5.2769 37.2317 4.43034 37.26 4.06349 36.8067C3.66843 36.3817 3.89418 35.7583 4.2328 35.3617L15.2381 23.8583L3.7813 13.3183C3.27337 12.8367 2.76543 11.8733 3.69665 10.9383C4.62787 10.0033 5.5873 10.4567 6.37742 11.1367L23.9859 25.4167L41.6226 11.1367C42.4127 10.4567 43.3721 10.0033 44.3034 10.9383Z" fill="currentColor"/>
</svg>
