<svg width="48" height="48" viewBox="0 0 48 48" fill="none" xmlns="http://www.w3.org/2000/svg">
<path fill-rule="evenodd" clip-rule="evenodd" d="M24.0182 2C11.8427 2 2 11.8732 2 24.0877C2 33.8515 8.30656 42.1162 17.0554 45.0414C18.1493 45.2613 18.5499 44.5662 18.5499 43.9814C18.5499 43.4693 18.5139 41.7141 18.5139 39.8853C12.3889 41.2021 11.1135 37.2523 11.1135 37.2523C10.1292 34.6925 8.67072 34.0346 8.67072 34.0346C6.66603 32.6815 8.81675 32.6815 8.81675 32.6815C11.0405 32.8278 12.2073 34.9487 12.2073 34.9487C14.1755 38.3128 17.347 37.3623 18.6229 36.7771C18.805 35.3508 19.3887 34.3635 20.0084 33.8151C15.1233 33.303 9.98359 31.4016 9.98359 22.9173C9.98359 20.5038 10.8579 18.5291 12.2434 16.9934C12.0248 16.445 11.2591 14.1773 12.4624 11.1422C12.4624 11.1422 14.3215 10.5569 18.5134 13.4094C20.3081 12.9259 22.159 12.68 24.0182 12.6779C25.8773 12.6779 27.7725 12.9341 29.5225 13.4094C33.7149 10.5569 35.574 11.1422 35.574 11.1422C36.7774 14.1773 36.0112 16.445 35.7926 16.9934C37.2145 18.5291 38.0528 20.5038 38.0528 22.9173C38.0528 31.4016 32.9131 33.2662 27.9915 33.8151C28.7938 34.5098 29.486 35.8261 29.486 37.9107C29.486 40.8727 29.45 43.2499 29.45 43.9809C29.45 44.5662 29.8511 45.2613 30.9445 45.0419C39.6933 42.1158 45.9999 33.8515 45.9999 24.0877C46.036 11.8732 36.1572 2 24.0182 2Z" fill="currentColor"/>
</svg>
