<svg width="48" height="48" viewBox="0 0 48 48" fill="none" xmlns="http://www.w3.org/2000/svg">
<path d="M38.0819 38.0825H32.1551V28.8008C32.1551 26.5875 32.1156 23.7383 29.0726 23.7383C25.9858 23.7383 25.5135 26.1498 25.5135 28.6397V38.0819H19.5867V18.9949H25.2764V21.6033H25.3561C26.5162 19.6197 28.6734 18.4349 30.9698 18.5201C36.9768 18.5201 38.0844 22.4714 38.0844 27.6117L38.0819 38.0825ZM12.8994 16.3858C10.9999 16.3862 9.45974 14.8466 9.4594 12.947C9.45906 11.0475 10.9986 9.5073 12.8981 9.50695C14.7977 9.50661 16.3378 11.0462 16.3381 12.9458C16.3383 13.858 15.9761 14.7329 15.3312 15.378C14.6863 16.0231 13.8116 16.3857 12.8994 16.3858ZM15.8628 38.0825H9.92984V18.9949H15.8628V38.0825ZM41.0366 4.00298H6.95164C5.34072 3.9848 4.01966 5.27522 4 6.88616V41.1133C4.01899 42.725 5.33994 44.0167 6.95164 43.9998H41.0366C42.6515 44.0198 43.9776 42.7282 44 41.1133V6.88369C43.977 5.26957 42.6507 3.97922 41.0366 4.00025" fill="currentColor"/>
</svg>
