<svg width="48" height="48" viewBox="0 0 48 48" fill="none" xmlns="http://www.w3.org/2000/svg">
<path d="M38.4339 38.4346H32.359V28.9208C32.359 26.6522 32.3185 23.7317 29.1994 23.7317C26.0354 23.7317 25.5513 26.2035 25.5513 28.7557V38.434H19.4764V18.8698H25.3083V21.5434H25.39C26.5791 19.5102 28.7902 18.2958 31.144 18.3831C37.3012 18.3831 38.4365 22.4332 38.4365 27.702L38.4339 38.4346ZM12.6219 16.1955C10.6749 16.1958 9.09623 14.6177 9.09589 12.6707C9.09554 10.7236 10.6736 9.14498 12.6206 9.14463C14.5676 9.14428 16.1462 10.7224 16.1466 12.6694C16.1468 13.6044 15.7755 14.5012 15.1145 15.1625C14.4535 15.8237 13.5568 16.1953 12.6219 16.1955ZM15.6593 38.4346H9.57808V18.8698H15.6593V38.4346ZM41.4625 3.50306H6.52544C4.87424 3.48442 3.52015 4.8071 3.5 6.45832V41.5411C3.51946 43.1931 4.87344 44.5171 6.52544 44.4998H41.4625C43.1178 44.5203 44.4771 43.1964 44.5 41.5411V6.45578C44.4764 4.8013 43.117 3.47871 41.4625 3.50026" fill="currentColor"/>
</svg>
