<svg width="48" height="48" viewBox="0 0 48 48" fill="none" xmlns="http://www.w3.org/2000/svg">
<path d="M9.91041 15.2017C10.7751 13.5994 12.7142 13.5994 13.5789 15.2017L23.129 32.897C24.0811 34.6611 23.0355 37 21.2947 37H2.19465C0.453903 37 -0.591694 34.6611 0.360389 32.897L9.91041 15.2017Z" fill="currentColor"/>
<path fill-rule="evenodd" clip-rule="evenodd" d="M32.283 5.3458C31.2696 3.5514 28.9857 3.5514 27.9723 5.3458L12.6743 32.434C11.5637 34.4005 12.7908 37 14.8297 37H45.4257C47.4645 37 48.6916 34.4005 47.581 32.434L32.283 5.3458ZM30.6859 9.36572C30.4227 8.87809 29.8326 8.87809 29.5694 9.36572L26.6629 14.7513C26.3731 15.2882 26.6913 16 27.2211 16H33.0342C33.564 16 33.8822 15.2882 33.5924 14.7513L30.6859 9.36572Z" fill="currentColor"/>
</svg>
