<?xml version="1.0" encoding="UTF-8"?>
<svg
  xmlns="http://www.w3.org/2000/svg"
  xmlns:xlink="http://www.w3.org/1999/xlink"
>
  <defs>
    <symbol viewBox="0 0 48 48" fill="none" id="linkedin">
      <path
        d="M38.4339 38.4346H32.359V28.9208C32.359 26.6522 32.3185 23.7317 29.1994 23.7317C26.0354 23.7317 25.5513 26.2035 25.5513 28.7557V38.434H19.4764V18.8698H25.3083V21.5434H25.39C26.5791 19.5102 28.7902 18.2958 31.144 18.3831C37.3012 18.3831 38.4365 22.4332 38.4365 27.702L38.4339 38.4346ZM12.6219 16.1955C10.6749 16.1958 9.09623 14.6177 9.09589 12.6707C9.09554 10.7236 10.6736 9.14498 12.6206 9.14463C14.5676 9.14428 16.1462 10.7224 16.1466 12.6694C16.1468 13.6044 15.7755 14.5012 15.1145 15.1625C14.4535 15.8237 13.5568 16.1953 12.6219 16.1955ZM15.6593 38.4346H9.57808V18.8698H15.6593V38.4346ZM41.4625 3.50306H6.52544C4.87424 3.48442 3.52015 4.8071 3.5 6.45832V41.5411C3.51946 43.1931 4.87344 44.5171 6.52544 44.4998H41.4625C43.1178 44.5203 44.4771 43.1964 44.5 41.5411V6.45578C44.4764 4.8013 43.117 3.47871 41.4625 3.50026"
        fill="currentColor"
      ></path>
    </symbol>
    <symbol viewBox="0 0 48 48" fill="none" id="github">
      <path
        fill-rule="evenodd"
        clip-rule="evenodd"
        d="M24.0182 2C11.8427 2 2 11.8732 2 24.0877C2 33.8515 8.30656 42.1162 17.0554 45.0414C18.1493 45.2613 18.5499 44.5662 18.5499 43.9814C18.5499 43.4693 18.5139 41.7141 18.5139 39.8853C12.3889 41.2021 11.1135 37.2523 11.1135 37.2523C10.1292 34.6925 8.67072 34.0346 8.67072 34.0346C6.66603 32.6815 8.81675 32.6815 8.81675 32.6815C11.0405 32.8278 12.2073 34.9487 12.2073 34.9487C14.1755 38.3128 17.347 37.3623 18.6229 36.7771C18.805 35.3508 19.3887 34.3635 20.0084 33.8151C15.1233 33.303 9.98359 31.4016 9.98359 22.9173C9.98359 20.5038 10.8579 18.5291 12.2434 16.9934C12.0248 16.445 11.2591 14.1773 12.4624 11.1422C12.4624 11.1422 14.3215 10.5569 18.5134 13.4094C20.3081 12.9259 22.159 12.68 24.0182 12.6779C25.8773 12.6779 27.7725 12.9341 29.5225 13.4094C33.7149 10.5569 35.574 11.1422 35.574 11.1422C36.7774 14.1773 36.0112 16.445 35.7926 16.9934C37.2145 18.5291 38.0528 20.5038 38.0528 22.9173C38.0528 31.4016 32.9131 33.2662 27.9915 33.8151C28.7938 34.5098 29.486 35.8261 29.486 37.9107C29.486 40.8727 29.45 43.2499 29.45 43.9809C29.45 44.5662 29.8511 45.2613 30.9445 45.0419C39.6933 42.1158 45.9999 33.8515 45.9999 24.0877C46.036 11.8732 36.1572 2 24.0182 2Z"
        fill="currentColor"
      ></path>
    </symbol>
    <symbol viewBox="0 0 48 48" fill="none" id="email">
      <path
        d="M48 36.75V11.25C48 8.89833 46.1093 7 43.7672 7H4.2328C1.89065 7 0 8.89833 0 11.25V36.75C0 39.1017 1.89065 41 4.2328 41H43.7672C46.1093 41 48 39.1017 48 36.75ZM44.3034 10.9383C45.2346 11.8733 44.7266 12.8367 44.2187 13.3183L32.7619 23.8583L43.7672 35.3617C44.1058 35.7583 44.3316 36.3817 43.9365 36.8067C43.5697 37.26 42.7231 37.2317 42.3563 36.9483L30.0247 26.38L23.9859 31.905L17.9753 26.38L5.64374 36.9483C5.2769 37.2317 4.43034 37.26 4.06349 36.8067C3.66843 36.3817 3.89418 35.7583 4.2328 35.3617L15.2381 23.8583L3.7813 13.3183C3.27337 12.8367 2.76543 11.8733 3.69665 10.9383C4.62787 10.0033 5.5873 10.4567 6.37742 11.1367L23.9859 25.4167L41.6226 11.1367C42.4127 10.4567 43.3721 10.0033 44.3034 10.9383Z"
        fill="currentColor"
      ></path>
    </symbol>
    <symbol viewBox="0 0 48 104" fill="none" id="chevron-right">
      <path
        d="M0 10L17.3205 0L47.3205 51.9615L30 61.9615L0 10Z"
        fill="currentColor"
      ></path>
      <path
        d="M30.0004 41.9631L47.3209 51.9631L17.3209 103.925L0.000427246 93.9247L30.0004 41.9631Z"
        fill="currentColor"
      ></path>
    </symbol>
    <symbol viewBox="0 0 48 48" fill="none" id="arrow-right">
      <path
        d="M26.7193 6.01259C27.3622 5.36423 28.2342 5 29.1433 5C30.0524 5 30.9244 5.36423 31.5673 6.01259L46.9961 21.5757C47.6389 22.2243 48 23.1038 48 24.0209C48 24.9379 47.6389 25.8175 46.9961 26.466L31.5673 42.0292C30.9207 42.6592 30.0546 43.0077 29.1556 42.9999C28.2567 42.992 27.3967 42.6283 26.761 41.987C26.1253 41.3458 25.7648 40.4784 25.7569 39.5716C25.7491 38.6648 26.0947 37.7912 26.7193 37.1389L36.0005 27.4794H3.42862C2.5193 27.4794 1.64721 27.115 1.00422 26.4664C0.361229 25.8178 0 24.9381 0 24.0209C0 23.1036 0.361229 22.224 1.00422 21.5754C1.64721 20.9268 2.5193 20.5624 3.42862 20.5624H36.0005L26.7193 10.9029C26.0765 10.2543 25.7154 9.3748 25.7154 8.45774C25.7154 7.54067 26.0765 6.66115 26.7193 6.01259Z"
        fill="currentColor"
      ></path>
    </symbol>
  </defs>
</svg>
