<?xml version="1.0" encoding="UTF-8"?>
<svg
  xmlns="http://www.w3.org/2000/svg"
  xmlns:xlink="http://www.w3.org/1999/xlink"
>
  <defs>
    <symbol viewBox="0 0 48 48" fill="none" id="linkedin">
      <path
        d="M38.0819 38.0825H32.1551V28.8008C32.1551 26.5875 32.1156 23.7383 29.0726 23.7383C25.9858 23.7383 25.5135 26.1498 25.5135 28.6397V38.0819H19.5867V18.9949H25.2764V21.6033H25.3561C26.5162 19.6197 28.6734 18.4349 30.9698 18.5201C36.9768 18.5201 38.0844 22.4714 38.0844 27.6117L38.0819 38.0825ZM12.8994 16.3858C10.9999 16.3862 9.45974 14.8466 9.4594 12.947C9.45906 11.0475 10.9986 9.5073 12.8981 9.50695C14.7977 9.50661 16.3378 11.0462 16.3381 12.9458C16.3383 13.858 15.9761 14.7329 15.3312 15.378C14.6863 16.0231 13.8116 16.3857 12.8994 16.3858ZM15.8628 38.0825H9.92984V18.9949H15.8628V38.0825ZM41.0366 4.00298H6.95164C5.34072 3.9848 4.01966 5.27522 4 6.88616V41.1133C4.01899 42.725 5.33994 44.0167 6.95164 43.9998H41.0366C42.6515 44.0198 43.9776 42.7282 44 41.1133V6.88369C43.977 5.26957 42.6507 3.97922 41.0366 4.00025"
        fill="currentColor"
      ></path>
    </symbol>
    <symbol viewBox="0 0 48 48" fill="none" id="github">
      <path
        fill-rule="evenodd"
        clip-rule="evenodd"
        d="M24.0182 2C11.8427 2 2 11.8732 2 24.0877C2 33.8515 8.30656 42.1162 17.0554 45.0414C18.1493 45.2613 18.5499 44.5662 18.5499 43.9814C18.5499 43.4693 18.5139 41.7141 18.5139 39.8853C12.3889 41.2021 11.1135 37.2523 11.1135 37.2523C10.1292 34.6925 8.67072 34.0346 8.67072 34.0346C6.66603 32.6815 8.81675 32.6815 8.81675 32.6815C11.0405 32.8278 12.2073 34.9487 12.2073 34.9487C14.1755 38.3128 17.347 37.3623 18.6229 36.7771C18.805 35.3508 19.3887 34.3635 20.0084 33.8151C15.1233 33.303 9.98359 31.4016 9.98359 22.9173C9.98359 20.5038 10.8579 18.5291 12.2434 16.9934C12.0248 16.445 11.2591 14.1773 12.4624 11.1422C12.4624 11.1422 14.3215 10.5569 18.5134 13.4094C20.3081 12.9259 22.159 12.68 24.0182 12.6779C25.8773 12.6779 27.7725 12.9341 29.5225 13.4094C33.7149 10.5569 35.574 11.1422 35.574 11.1422C36.7774 14.1773 36.0112 16.445 35.7926 16.9934C37.2145 18.5291 38.0528 20.5038 38.0528 22.9173C38.0528 31.4016 32.9131 33.2662 27.9915 33.8151C28.7938 34.5098 29.486 35.8261 29.486 37.9107C29.486 40.8727 29.45 43.2499 29.45 43.9809C29.45 44.5662 29.8511 45.2613 30.9445 45.0419C39.6933 42.1158 45.9999 33.8515 45.9999 24.0877C46.036 11.8732 36.1572 2 24.0182 2Z"
        fill="currentColor"
      ></path>
    </symbol>
    <symbol viewBox="0 0 48 48" fill="none" id="email">
      <path
        d="M48 36.75V11.25C48 8.89833 46.1093 7 43.7672 7H4.2328C1.89065 7 0 8.89833 0 11.25V36.75C0 39.1017 1.89065 41 4.2328 41H43.7672C46.1093 41 48 39.1017 48 36.75ZM44.3034 10.9383C45.2346 11.8733 44.7266 12.8367 44.2187 13.3183L32.7619 23.8583L43.7672 35.3617C44.1058 35.7583 44.3316 36.3817 43.9365 36.8067C43.5697 37.26 42.7231 37.2317 42.3563 36.9483L30.0247 26.38L23.9859 31.905L17.9753 26.38L5.64374 36.9483C5.2769 37.2317 4.43034 37.26 4.06349 36.8067C3.66843 36.3817 3.89418 35.7583 4.2328 35.3617L15.2381 23.8583L3.7813 13.3183C3.27337 12.8367 2.76543 11.8733 3.69665 10.9383C4.62787 10.0033 5.5873 10.4567 6.37742 11.1367L23.9859 25.4167L41.6226 11.1367C42.4127 10.4567 43.3721 10.0033 44.3034 10.9383Z"
        fill="currentColor"
      ></path>
    </symbol>
  </defs>
</svg>
