<svg width="128" height="128" viewBox="0 0 128 128" fill="none" xmlns="http://www.w3.org/2000/svg">
<style>
  path {
    fill: black;
  }
  @media (prefers-color-scheme: dark) {
    path {
      fill: white;
    }
  }
</style>
<path d="M24.5777 61.78C20.7817 61.78 17.4537 61.078 14.5937 59.674C11.7337 58.218 9.4977 56.216 7.8857 53.668C6.3257 51.068 5.5457 48.052 5.5457 44.62V20.44C5.5457 16.956 6.3257 13.94 7.8857 11.392C9.4977 8.844 11.7337 6.868 14.5937 5.464C17.4537 4.008 20.7817 3.28 24.5777 3.28C28.4257 3.28 31.7537 4.008 34.5617 5.464C37.4217 6.868 39.6317 8.844 41.1917 11.392C42.8037 13.94 43.6097 16.956 43.6097 20.44H31.9097C31.9097 18.152 31.2597 16.41 29.9597 15.214C28.7117 14.018 26.9177 13.42 24.5777 13.42C22.2377 13.42 20.4177 14.018 19.1177 15.214C17.8697 16.41 17.2457 18.152 17.2457 20.44V44.62C17.2457 46.856 17.8697 48.598 19.1177 49.846C20.4177 51.042 22.2377 51.64 24.5777 51.64C26.9177 51.64 28.7117 51.042 29.9597 49.846C31.2597 48.598 31.9097 46.856 31.9097 44.62V39.706H23.4857V29.8H43.6097V44.62C43.6097 48.052 42.8037 51.068 41.1917 53.668C39.6317 56.216 37.4217 58.218 34.5617 59.674C31.7537 61.078 28.4257 61.78 24.5777 61.78ZM46.8552 61V4.06H81.9552V14.044H58.3212V26.836H79.2252V36.82H58.3212V51.016H81.9552V61H46.8552ZM85.4348 61V4.06H103.765C107.821 4.06 111.331 4.762 114.295 6.166C117.259 7.57 119.547 9.572 121.159 12.172C122.823 14.772 123.655 17.84 123.655 21.376C123.655 25.068 122.745 28.37 120.925 31.282C119.157 34.194 116.739 36.3 113.671 37.6L124.435 61H111.721L102.517 39.472H97.0568V61H85.4348ZM97.0568 29.332H103.765C106.365 29.332 108.367 28.682 109.771 27.382C111.227 26.082 111.955 24.262 111.955 21.922C111.955 19.478 111.227 17.58 109.771 16.228C108.367 14.876 106.365 14.2 103.765 14.2H97.0568V29.332ZM24.2657 123.78C20.2617 123.78 16.7777 123.104 13.8137 121.752C10.8497 120.4 8.5617 118.502 6.9497 116.058C5.3377 113.614 4.5317 110.728 4.5317 107.4H16.2317C16.2317 109.324 16.9597 110.858 18.4157 112.002C19.9237 113.094 21.9517 113.64 24.4997 113.64C26.9437 113.64 28.8417 113.094 30.1937 112.002C31.5977 110.91 32.2997 109.402 32.2997 107.478C32.2997 105.814 31.7797 104.384 30.7397 103.188C29.6997 101.992 28.2437 101.186 26.3717 100.77L20.5997 99.444C15.7637 98.3 11.9937 96.194 9.2897 93.126C6.6377 90.006 5.3117 86.21 5.3117 81.738C5.3117 78.41 6.0657 75.524 7.5737 73.08C9.1337 70.584 11.3177 68.66 14.1257 67.308C16.9337 65.956 20.2617 65.28 24.1097 65.28C29.9337 65.28 34.5357 66.736 37.9157 69.648C41.3477 72.508 43.0637 76.382 43.0637 81.27H31.3637C31.3637 79.45 30.7137 78.02 29.4137 76.98C28.1657 75.94 26.3457 75.42 23.9537 75.42C21.7177 75.42 20.0017 75.94 18.8057 76.98C17.6097 77.968 17.0117 79.398 17.0117 81.27C17.0117 82.934 17.4797 84.364 18.4157 85.56C19.4037 86.704 20.7817 87.484 22.5497 87.9L28.6337 89.304C33.6777 90.448 37.4997 92.528 40.0997 95.544C42.6997 98.508 43.9997 102.304 43.9997 106.932C43.9997 110.26 43.1677 113.198 41.5037 115.746C39.8917 118.294 37.6037 120.27 34.6397 121.674C31.7277 123.078 28.2697 123.78 24.2657 123.78ZM64.0152 123.78C60.2192 123.78 56.9172 123.078 54.1092 121.674C51.3012 120.218 49.1172 118.216 47.5572 115.668C46.0492 113.068 45.2952 110.052 45.2952 106.62V82.44C45.2952 79.008 46.0492 76.018 47.5572 73.47C49.1172 70.87 51.3012 68.868 54.1092 67.464C56.9172 66.008 60.2192 65.28 64.0152 65.28C67.8632 65.28 71.1652 66.008 73.9212 67.464C76.7292 68.868 78.8872 70.87 80.3952 73.47C81.9552 76.018 82.7352 79.008 82.7352 82.44V106.62C82.7352 110.052 81.9552 113.068 80.3952 115.668C78.8872 118.216 76.7292 120.218 73.9212 121.674C71.1652 123.078 67.8632 123.78 64.0152 123.78ZM64.0152 113.64C66.3552 113.64 68.0972 113.042 69.2412 111.846C70.4372 110.598 71.0352 108.856 71.0352 106.62V82.44C71.0352 80.152 70.4632 78.41 69.3192 77.214C68.1752 76.018 66.4072 75.42 64.0152 75.42C61.6232 75.42 59.8552 76.018 58.7112 77.214C57.5672 78.41 56.9952 80.152 56.9952 82.44V106.62C56.9952 108.856 57.5672 110.598 58.7112 111.846C59.9072 113.042 61.6752 113.64 64.0152 113.64ZM83.6408 123V66.06H96.8228L102.049 84C102.621 85.872 103.037 87.51 103.297 88.914C103.609 90.318 103.791 91.306 103.843 91.878C103.895 91.306 104.051 90.318 104.311 88.914C104.623 87.51 105.039 85.872 105.559 84L110.707 66.06H123.889V123H113.203V107.4C113.203 104.54 113.255 101.55 113.359 98.43C113.515 95.258 113.697 92.112 113.905 88.992C114.113 85.872 114.347 82.96 114.607 80.256C114.867 77.5 115.101 75.108 115.309 73.08L108.757 98.82H98.8508L91.9868 73.08C92.2468 75.004 92.5068 77.318 92.7668 80.022C93.0268 82.674 93.2608 85.56 93.4688 88.68C93.7288 91.748 93.9368 94.894 94.0928 98.118C94.2488 101.342 94.3268 104.436 94.3268 107.4V123H83.6408Z" fill="black"/>
</svg>
